<svg width="48" height="48" viewBox="0 0 48 48" fill="none" xmlns="http://www.w3.org/2000/svg">
<path d="M5.25 22.7499C4.91848 22.7499 4.60054 22.8816 4.36612 23.1161C4.1317 23.3505 4 23.6684 4 23.9999C4 24.3315 4.1317 24.6494 4.36612 24.8838C4.60054 25.1182 4.91848 25.2499 5.25 25.2499L37.696 25.2499L24.874 37.8589C24.7516 37.9727 24.6532 38.1098 24.5847 38.2623C24.5162 38.4147 24.479 38.5793 24.4752 38.7464C24.4714 38.9135 24.5012 39.0796 24.5627 39.235C24.6243 39.3904 24.7163 39.5318 24.8335 39.651C24.9507 39.7702 25.0905 39.8646 25.2448 39.9288C25.3992 39.993 25.5648 40.0256 25.7319 40.0246C25.899 40.0237 26.0642 39.9893 26.2178 39.9234C26.3714 39.8574 26.5102 39.7614 26.626 39.6409L41.626 24.8909C41.7442 24.7746 41.8381 24.6359 41.9022 24.483C41.9663 24.33 41.9993 24.1658 41.9993 23.9999C41.9993 23.8341 41.9663 23.6699 41.9022 23.5169C41.8381 23.3639 41.7442 23.2253 41.626 23.1089L26.626 8.35894C26.5102 8.23846 26.3714 8.14243 26.2178 8.07652C26.0642 8.01062 25.899 7.97618 25.7319 7.97524C25.5648 7.9743 25.3992 8.00689 25.2448 8.07106C25.0905 8.13524 24.9507 8.2297 24.8335 8.34887C24.7163 8.46804 24.6243 8.6095 24.5627 8.76487C24.5012 8.92025 24.4714 9.08638 24.4752 9.25346C24.479 9.42054 24.5162 9.58516 24.5847 9.7376C24.6532 9.89003 24.7516 10.0272 24.874 10.1409L37.696 22.7499L5.25 22.7499Z" fill="white"/>
</svg>
